Coordinates
version=1
nRows=60
nColumns=12
inDegrees=yes

Units are S.I. units (second, meters, Newtons, ...)
Angles are in degrees

endheader
time	SC_y	SC_z	SC_x	AC_y	AC_z	AC_x	GH_y	GH_z	GH_yy	EL_x	PS_y
       0.0              -48.59          38.58          4.351          32.23          6.405         -10.98          -33.6          69.89         -167.5          127.7          7.846
   0.03453              -48.58          38.58           4.36          32.23          6.405         -10.98         -33.58          69.88         -167.5          127.6          7.852
   0.06907              -48.58          38.58          4.369          32.23          6.405         -10.97         -33.55          69.88         -167.5          127.6          7.858
    0.1036              -48.57          38.58          4.379          32.23          6.405         -10.97         -33.53          69.88         -167.4          127.6          7.865
    0.1381              -48.56          38.58          4.389          32.23          6.405         -10.97          -33.5          69.87         -167.4          127.6          7.872
    0.1727              -48.56          38.58            4.4          32.23          6.405         -10.96         -33.47          69.87         -167.4          127.6          7.879
    0.2072              -48.55          38.58          4.412          32.23          6.405         -10.96         -33.45          69.87         -167.4          127.5          7.887
    0.2417              -48.54          38.57          4.425          32.23          6.404         -10.96         -33.41          69.86         -167.3          127.5          7.895
    0.2763              -48.54          38.57          4.438          32.23          6.404         -10.95         -33.38          69.86         -167.3          127.5          7.904
    0.3108              -48.53          38.57          4.453          32.23          6.404         -10.95         -33.34          69.85         -167.3          127.5          7.914
    0.3453              -48.52          38.57          4.468          32.23          6.404         -10.94          -33.3          69.85         -167.2          127.4          7.925
    0.3799              -48.51          38.57          4.485          32.23          6.404         -10.94         -33.26          69.84         -167.2          127.4          7.936
    0.4144               -48.5          38.56          4.503          32.23          6.404         -10.93         -33.22          69.84         -167.2          127.4          7.948
    0.4489              -48.49          38.56          4.523          32.23          6.403         -10.92         -33.17          69.83         -167.1          127.3          7.961
    0.4835              -48.47          38.56          4.544          32.23          6.403         -10.92         -33.12          69.82         -167.1          127.3          7.975
     0.518              -48.46          38.55          4.567          32.23          6.403         -10.91         -33.06          69.82         -167.0          127.3           7.99
    0.5525              -48.44          38.55          4.592          32.23          6.403          -10.9          -33.0          69.81         -167.0          127.2          8.007
    0.5871              -48.43          38.55          4.619          32.23          6.403         -10.89         -32.93           69.8         -166.9          127.2          8.025
    0.6216              -48.41          38.54          4.649          32.23          6.402         -10.88         -32.86          69.79         -166.8          127.1          8.045
    0.6561              -48.39          38.54          4.681          32.23          6.402         -10.87         -32.77          69.78         -166.8          127.0          8.066
    0.6907              -48.37          38.53          4.717          32.23          6.402         -10.86         -32.69          69.77         -166.7          127.0           8.09
    0.7252              -48.35          38.53          4.756          32.23          6.401         -10.85         -32.59          69.75         -166.6          126.9          8.116
    0.7597              -48.32          38.52            4.8          32.23          6.401         -10.83         -32.48          69.74         -166.5          126.8          8.145
    0.7943              -48.29          38.52          4.848          32.23          6.401         -10.82         -32.36          69.72         -166.4          126.7          8.177
    0.8288              -48.26          38.51          4.901          32.23            6.4          -10.8         -32.23          69.71         -166.3          126.6          8.213
    0.8633              -48.22           38.5          4.961          32.23            6.4         -10.78         -32.08          69.69         -166.2          126.5          8.253
    0.8979              -48.18          38.49          5.028          32.23          6.399         -10.76         -31.91          69.66         -166.0          126.4          8.297
    0.9324              -48.14          38.48          5.103          32.23          6.398         -10.73         -31.72          69.64         -165.8          126.3          8.347
    0.9669              -48.09          38.47          5.188          32.23          6.397          -10.7         -31.51          69.61         -165.7          126.1          8.404
     1.001              -48.03          38.46          5.284          32.23          6.397         -10.67         -31.27          69.58         -165.4          125.9          8.468
     1.036              -47.97          38.44          5.394          32.23          6.396         -10.64          -31.0          69.54         -165.2          125.7          8.542
     1.071              -47.89          38.43           5.52          32.23          6.394          -10.6         -30.68           69.5         -164.9          125.5          8.626
     1.105               -47.8          38.41          5.666          32.23          6.393         -10.55         -30.32          69.45         -164.6          125.2          8.723
      1.14               -47.7          38.38          5.836          32.23          6.392         -10.49          -29.9           69.4         -164.2          124.9          8.836
     1.174              -47.58          38.36          6.034          32.23           6.39         -10.43         -29.41          69.33         -163.8          124.6          8.968
     1.209              -47.44          38.33          6.268          32.23          6.388         -10.35         -28.82          69.26         -163.3          124.1          9.124
     1.243              -47.28          38.29          6.545          32.24          6.385         -10.26         -28.13          69.16         -162.7          123.6          9.309
     1.278              -47.08          38.24          6.878          32.24          6.382         -10.15          -27.3          69.05         -161.9          123.0          9.531
     1.312              -46.84          38.19          7.281          32.24          6.378         -10.02          -26.3          68.92         -161.0          122.2          9.799
     1.347              -46.55          38.12          7.773          32.24          6.374         -9.853         -25.07          68.76         -160.0          121.3          10.13
     1.381              -46.19          38.04           8.38          32.24          6.368         -9.653         -23.56          68.56         -158.6          120.2          10.53
     1.416              -45.73          37.94          9.137          32.24          6.361         -9.404         -21.68          68.31         -157.0          118.8          11.04
      1.45              -45.17          37.81          10.09          32.25          6.353         -9.089          -19.3           68.0         -154.9          117.1          11.67
     1.485              -44.44          37.65           11.3          32.25          6.342          -8.69         -16.28           67.6         -152.2          114.8          12.48
     1.519              -43.52          37.44          12.86          32.26          6.328         -8.179         -12.41          67.08         -148.8          112.0          13.51
     1.554              -42.33          37.17          14.85          32.27          6.309         -7.522         -7.454          66.43         -144.4          108.3          14.84
     1.589              -40.81          36.83          17.39          32.27          6.286         -6.684         -1.118          65.59         -138.8          103.6          16.54
     1.623               -38.9           36.4          20.59          32.29          6.257          -5.63          6.849          64.53         -131.7           97.7          18.67
     1.658              -36.58          35.88          24.49           32.3          6.222         -4.346          16.56          63.25         -123.2           90.5          21.27
     1.692              -33.89          35.27          29.01          32.32           6.18         -2.858          27.81          61.76         -113.2          82.17          24.28
     1.727              -30.97          34.61           33.9          32.33          6.136         -1.246           40.0          60.15         -102.4          73.14          27.54
     1.761              -28.05          33.95          38.79          32.35          6.091         0.3662          52.18          58.53         -91.66          64.12           30.8
     1.796              -25.36          33.34          43.31          32.37           6.05          1.855          63.44          57.04         -81.71          55.78          33.81
      1.83              -23.03          32.82          47.21          32.38          6.014          3.139          73.15          55.76         -73.13          48.59          36.41
     1.865              -21.13          32.39          50.41           32.4          5.985          4.193          81.11           54.7         -66.08          42.69          38.54
     1.899              -19.61          32.05          52.95           32.4          5.962          5.031          87.45          53.87         -60.48           38.0          40.24
     1.934              -18.42          31.78          54.94          32.41          5.944          5.687          92.41          53.21          -56.1          34.32          41.57
     1.968               -17.5          31.57           56.5          32.42           5.93          6.199          96.28           52.7         -52.68          31.46           42.6
     2.003              -16.77          31.41          57.71          32.42          5.919          6.598           99.3           52.3         -50.01          29.22          43.41
     2.037               -16.2          31.28          58.66          32.43           5.91          6.912          101.7          51.98         -47.91          27.46          44.05
